# xmcd
# Copyright (C) 1995-1998 Ti Kan
#
# Track frame offsets:
#       150
#       4259
#       24999
#       42659
#       55008
#       60132
#       74591
#       81261
#       99920
#       113968
#       118844
#       130185
#       134370
#       143420
#       157015
#       171406
#       185865
#       197150
#       203680
#       220967
#
# Disc length: 3023 seconds
#
# Revision: 0
# Processed by: cddbd v1.4b42PL1 Copyright (c) Steve Scherf et al.
# Submitted via: CD-Transfer v1.0
#
DISCID=260bcd14
DTITLE=Vasi - Diräggt Us Em Milieu
DYEAR=2001
DGENRE=
TTITLE0=Entro
TTITLE1=Hard Headed
TTITLE2=Im Griff?
TTITLE3=10 Cop Commandments
TTITLE4=Trajko Vs. Fred P.
TTITLE5=Schinwelt
TTITLE6=Ljuba
TTITLE7=Wär Wämm Welle
TTITLE8=S'isch Nit Alles
TTITLE9=Miliö
TTITLE10=Käse
TTITLE11=Vasi Ä Bomb
TTITLE12=So Good
TTITLE13=Aight Rmx
TTITLE14=1 Liebi
TTITLE15=Valued Products
TTITLE16=Ähm
TTITLE17=Rotten Skit
TTITLE18=So Isch Es
TTITLE19=Majorkakerlaken
EXTD=
EXTT0=
EXTT1=
EXTT2=
EXTT3=
EXTT4=
EXTT5=
EXTT6=
EXTT7=
EXTT8=
EXTT9=
EXTT10=
EXTT11=
EXTT12=
EXTT13=
EXTT14=
EXTT15=
EXTT16=
EXTT17=
EXTT18=
EXTT19=
PLAYORDER=
